<?xml version="1.0" standalone="no"?>
<!DOCTYPE svg PUBLIC "-//W3C//DTD SVG 20010904//EN"
 "http://www.w3.org/TR/2001/REC-SVG-20010904/DTD/svg10.dtd">
<svg version="1.0" xmlns="http://www.w3.org/2000/svg"
 width="256.000000pt" height="199.000000pt" viewBox="0 0 256.000000 199.000000"
 preserveAspectRatio="xMidYMid meet">

<g transform="translate(0.000000,199.000000) scale(0.100000,-0.100000)"
fill="#000000" stroke="none">
<path d="M1182 1968 c-17 -17 -17 -279 0 -296 7 -7 43 -12 90 -12 66 0 79 3
88 19 15 28 13 274 -2 289 -7 7 -42 12 -88 12 -46 0 -81 -5 -88 -12z"/>
<path d="M964 1929 c-111 -37 -112 -42 -57 -193 52 -145 62 -153 153 -119 90
33 95 51 54 171 -35 103 -59 148 -81 154 -10 3 -41 -3 -69 -13z"/>
<path d="M1473 1903 c-41 -99 -73 -197 -73 -224 0 -26 6 -33 48 -51 26 -12 65
-22 87 -22 38 -1 41 1 62 44 39 82 75 199 69 223 -4 18 -20 30 -62 46 -31 11
-69 21 -85 21 -25 0 -33 -6 -46 -37z"/>
<path d="M705 1794 c-50 -25 -95 -75 -95 -104 0 -30 20 -59 106 -155 75 -82
92 -85 163 -25 72 61 70 77 -24 189 -63 76 -100 111 -117 111 -2 0 -16 -7 -33
-16z"/>
<path d="M1754 1783 c-64 -68 -154 -187 -154 -203 0 -21 79 -96 115 -110 14
-5 32 -7 40 -4 22 9 175 203 175 223 0 22 -15 40 -65 78 -61 46 -80 49 -111
16z"/>
<path d="M477 1543 c-39 -62 -47 -80 -47 -107 0 -28 14 -39 138 -110 107 -61
126 -60 170 14 53 89 47 103 -78 177 -126 74 -151 77 -183 26z"/>
<path d="M1965 1559 c-22 -12 -78 -44 -123 -71 -78 -47 -84 -52 -78 -78 8 -44
64 -124 90 -131 17 -5 40 3 77 24 30 16 79 43 109 60 63 35 70 42 70 76 0 40
-73 141 -102 141 -2 0 -21 -9 -43 -21z"/>
<path d="M1162 1513 c14 -29 18 -52 16 -95 -3 -32 -7 -60 -10 -63 -3 -3 -22
10 -43 30 -53 48 -71 46 -73 -6 -3 -57 -18 -112 -41 -140 -53 -68 -63 -128
-35 -199 29 -71 147 -110 340 -110 115 0 182 19 233 68 66 63 75 146 25 242
-23 43 -57 90 -67 90 -2 0 -7 -17 -11 -38 -6 -40 -47 -89 -65 -77 -6 3 -11 27
-11 53 0 69 -17 119 -53 158 -35 37 -181 124 -208 124 -15 0 -15 -4 3 -37z"/>
<path d="M367 1286 c-20 -21 -32 -165 -15 -182 13 -13 192 -44 254 -44 42 0
50 12 65 93 17 93 11 98 -152 126 -149 25 -134 24 -152 7z"/>
<path d="M1986 1279 c-54 -10 -104 -24 -112 -30 -30 -25 -6 -174 30 -190 29
-14 253 26 279 48 20 19 21 51 6 123 -16 77 -32 81 -203 49z"/>
<path d="M2310 989 c-151 -20 -836 -110 -1060 -139 -264 -34 -983 -129 -1108
-146 -101 -14 -122 -20 -122 -34 0 -9 2 -19 5 -22 3 -2 119 10 257 28 139 18
375 49 523 69 149 19 389 50 535 69 146 19 335 44 420 56 85 12 279 38 430 58
265 36 275 38 278 60 2 14 -2 21 -10 21 -7 -1 -74 -10 -148 -20z"/>
<path d="M1941 834 c-26 -34 -26 -65 -1 -252 23 -162 49 -235 87 -240 12 -2
40 2 62 8 37 10 40 13 46 54 9 60 -21 312 -46 394 -16 48 -35 62 -84 62 -35 0
-48 -5 -64 -26z m93 -46 c13 -21 33 -138 51 -301 7 -62 -3 -87 -35 -87 -30 0
-41 48 -75 317 -10 80 25 123 59 71z"/>
<path d="M1785 830 l-39 -5 2 -225 c2 -124 6 -240 9 -258 5 -29 9 -33 32 -30
25 3 26 5 26 73 0 64 2 70 22 73 22 3 30 -13 48 -100 4 -21 11 -28 30 -28 33
0 36 9 21 71 -8 30 -24 99 -36 154 -48 217 -62 270 -68 275 -4 3 -25 3 -47 0z
m44 -204 c16 -87 15 -106 -9 -106 -19 0 -20 7 -20 92 0 101 11 106 29 14z"/>
<path d="M1613 803 c-17 -6 -16 -56 1 -168 7 -49 19 -130 26 -180 22 -167 18
-155 50 -155 35 0 34 -7 15 135 -8 61 -22 166 -30 234 -9 69 -18 128 -21 133
-6 9 -22 9 -41 1z"/>
<path d="M1423 790 c-38 -15 -46 -46 -40 -144 10 -149 38 -304 61 -339 18 -26
29 -33 65 -35 60 -4 87 16 94 70 3 24 3 63 -1 88 -6 40 -10 45 -32 45 -24 0
-25 -2 -25 -64 0 -50 -4 -66 -18 -75 -24 -15 -43 10 -50 67 -4 23 -14 99 -24
169 -14 105 -15 129 -4 142 28 34 52 9 66 -68 6 -29 12 -36 31 -36 12 0 25 3
27 8 11 16 -26 148 -45 165 -21 18 -69 21 -105 7z"/>
<path d="M1089 719 c-20 -20 -21 -29 -16 -123 8 -129 34 -281 55 -326 15 -32
21 -35 64 -38 38 -2 51 1 69 19 21 21 22 27 15 128 -8 137 -38 302 -59 335
-15 22 -25 26 -62 26 -33 0 -51 -6 -66 -21z m91 -65 c23 -61 55 -332 42 -352
-16 -24 -55 -10 -64 23 -9 37 -31 232 -32 298 -1 68 33 87 54 31z"/>
<path d="M890 607 c0 -57 3 -172 7 -256 l6 -152 26 3 c25 3 26 5 26 68 0 63 1
65 27 68 25 3 27 0 40 -60 14 -63 28 -77 56 -59 15 9 17 -3 -44 261 -14 58
-27 116 -30 130 -20 98 -21 100 -69 100 l-45 0 0 -103z m87 -110 c15 -76 16
-89 3 -97 -30 -19 -40 9 -40 114 1 117 10 113 37 -17z"/>
<path d="M744 676 c-3 -8 7 -97 21 -198 15 -101 30 -208 34 -238 6 -53 7 -55
36 -55 24 0 30 4 28 20 -4 42 -54 421 -59 453 -5 26 -11 32 -30 32 -14 0 -27
-6 -30 -14z"/>
<path d="M583 673 c-17 -2 -36 -10 -43 -17 -20 -25 -18 -119 6 -266 37 -232
46 -248 128 -237 57 8 76 35 76 106 0 80 -8 101 -36 101 -23 0 -24 -3 -24 -64
0 -70 -17 -99 -44 -77 -18 15 -22 33 -45 211 -19 146 -16 190 13 190 23 0 36
-25 43 -79 5 -48 7 -51 35 -51 l30 0 -7 53 c-12 91 -44 141 -87 135 -7 0 -27
-3 -45 -5z"/>
<path d="M2180 315 c-173 -24 -443 -60 -600 -80 -157 -20 -364 -47 -460 -60
-96 -13 -350 -47 -565 -75 -466 -60 -445 -56 -445 -82 0 -19 4 -20 43 -14 59
10 304 42 1092 146 374 49 816 107 982 129 166 23 307 41 313 41 5 0 10 9 10
20 0 26 9 27 -370 -25z"/>
</g>
</svg>
