<?xml version="1.0" standalone="no"?>
<!DOCTYPE svg PUBLIC "-//W3C//DTD SVG 20010904//EN"
 "http://www.w3.org/TR/2001/REC-SVG-20010904/DTD/svg10.dtd">
<svg version="1.0" xmlns="http://www.w3.org/2000/svg"
 width="256.000000pt" height="238.000000pt" viewBox="0 0 256.000000 238.000000"
 preserveAspectRatio="xMidYMid meet">

<g transform="translate(0.000000,238.000000) scale(0.100000,-0.100000)"
fill="#000000" stroke="none">
<path d="M1167 2342 c-14 -16 -17 -43 -17 -175 0 -156 0 -157 25 -173 19 -12
43 -15 106 -12 110 5 109 3 109 190 0 187 -1 188 -123 188 -69 0 -87 -3 -100
-18z"/>
<path d="M885 2294 c-63 -22 -95 -44 -95 -65 0 -6 88 -258 105 -302 10 -25 58
-19 140 16 88 38 89 46 26 213 -49 130 -69 165 -95 164 -6 -1 -42 -12 -81 -26z"/>
<path d="M1533 2308 c-5 -7 -33 -77 -62 -155 -51 -135 -53 -144 -38 -167 22
-34 157 -82 186 -67 28 16 35 30 85 185 33 104 41 139 32 150 -10 13 -157 66
-182 66 -6 0 -16 -6 -21 -12z"/>
<path d="M595 2148 c-36 -19 -125 -112 -125 -130 0 -9 48 -73 107 -142 127
-150 131 -152 222 -76 91 76 91 77 -35 229 -110 134 -124 144 -169 119z"/>
<path d="M1854 2128 c-50 -54 -160 -191 -173 -215 -15 -30 -5 -49 60 -107 77
-69 88 -66 199 57 111 122 123 140 116 165 -8 25 -135 132 -156 132 -9 0 -30
-15 -46 -32z"/>
<path d="M327 1858 c-54 -73 -79 -145 -59 -174 4 -6 69 -45 145 -88 97 -54
143 -75 157 -71 11 4 32 28 46 53 13 26 33 61 44 77 18 29 18 85 -1 85 -4 0
-64 34 -132 75 -69 41 -136 75 -150 75 -18 0 -34 -11 -50 -32z"/>
<path d="M1998 1803 c-149 -89 -152 -94 -92 -196 39 -67 49 -77 77 -77 30 0
268 143 280 168 8 17 5 33 -14 74 -34 73 -65 108 -97 108 -15 0 -82 -34 -154
-77z"/>
<path d="M1129 1829 c25 -41 35 -105 27 -164 -8 -52 -22 -56 -57 -19 -13 14
-36 32 -52 40 -32 17 -33 16 -41 -66 -7 -70 -31 -141 -57 -169 -65 -70 -64
-197 2 -258 60 -55 246 -90 428 -81 113 6 192 37 239 94 53 63 66 157 35 236
-18 46 -90 148 -104 148 -5 0 -9 -18 -9 -39 0 -44 -39 -101 -70 -101 -15 0
-19 13 -25 82 -8 100 -37 160 -97 205 -47 34 -180 107 -216 118 l-23 7 20 -33z"/>
<path d="M186 1528 c-19 -32 -40 -149 -32 -182 8 -34 20 -38 191 -70 136 -25
141 -25 165 -7 25 18 29 30 48 125 17 85 15 87 -159 124 -183 38 -194 39 -213
10z"/>
<path d="M2155 1523 c-86 -15 -146 -30 -157 -40 -21 -18 -22 -60 -5 -143 17
-81 30 -84 197 -54 162 29 167 31 180 54 11 21 -12 163 -30 185 -18 22 -41 22
-185 -2z"/>
<path d="M2300 1154 c-296 -40 -646 -86 -1030 -134 -91 -12 -187 -25 -215 -30
-27 -5 -93 -14 -145 -20 -52 -5 -126 -14 -165 -20 -99 -14 -513 -68 -620 -81
-98 -12 -137 -31 -112 -56 11 -12 38 -11 168 7 85 12 222 30 304 40 83 10 238
30 345 45 107 14 236 30 285 35 50 6 101 12 115 15 14 3 93 14 175 24 83 11
251 34 375 51 124 17 279 37 345 45 66 8 149 19 185 24 36 6 102 15 148 22 76
11 82 13 82 35 0 30 -4 30 -240 -2z"/>
<path d="M2131 1030 c-67 -10 -81 -34 -81 -135 0 -72 29 -309 47 -385 21 -89
60 -118 138 -100 54 12 68 31 73 99 8 104 -37 408 -70 473 -15 31 -47 62 -60
57 -2 -1 -23 -5 -47 -9z m42 -82 c27 -21 71 -287 65 -393 -3 -56 -5 -60 -30
-63 -34 -4 -41 17 -67 213 -24 173 -26 226 -9 243 15 15 20 15 41 0z"/>
<path d="M1846 983 c-17 -5 -18 -16 -12 -236 3 -128 9 -265 12 -305 l6 -73 32
3 31 3 0 65 c1 88 3 97 20 104 30 11 43 -6 60 -80 18 -75 18 -75 49 -72 29 3
31 5 28 38 -3 40 -109 504 -122 538 -8 18 -17 22 -47 21 -21 -1 -46 -3 -57 -6z
m89 -258 c17 -77 15 -110 -8 -103 -20 7 -38 178 -18 178 5 0 17 -34 26 -75z"/>
<path d="M1683 963 c-15 -3 -23 -12 -23 -24 0 -41 71 -545 80 -566 10 -24 26
-29 49 -14 12 8 8 55 -23 301 -36 287 -40 311 -54 309 -4 -1 -17 -4 -29 -6z"/>
<path d="M1465 938 c-65 -23 -68 -36 -49 -233 18 -188 41 -308 68 -348 19 -29
28 -32 77 -35 48 -2 58 0 79 22 26 29 37 103 26 181 -7 45 -8 46 -39 43 -27
-3 -32 -7 -30 -28 8 -90 5 -122 -9 -136 -18 -18 -51 -6 -62 21 -5 14 -31 194
-53 361 -6 48 10 84 37 84 30 0 51 -51 59 -143 1 -5 13 -7 29 -5 26 3 27 4 25
64 -5 133 -60 186 -158 152z"/>
<path d="M1120 893 c-63 -10 -72 -15 -86 -48 -18 -45 -18 -90 6 -265 28 -217
57 -308 98 -311 94 -8 138 15 148 76 10 71 -43 450 -70 504 -12 21 -59 56 -69
50 -1 -1 -13 -3 -27 -6z m34 -79 c9 -8 16 -19 16 -23 0 -4 11 -90 26 -191 27
-200 28 -238 2 -254 -34 -21 -55 19 -73 134 -8 58 -20 135 -25 172 -6 37 -10
86 -10 110 0 63 30 87 64 52z"/>
<path d="M821 841 c-11 -7 -12 -46 -7 -217 4 -115 9 -251 12 -302 l6 -93 27 3
c25 3 26 5 29 80 3 84 16 107 51 89 13 -8 23 -29 31 -68 17 -83 17 -83 43 -83
46 0 46 12 -5 228 -26 114 -55 232 -63 262 -8 30 -17 67 -20 83 -5 24 -10 27
-48 27 -23 0 -48 -4 -56 -9z m88 -222 c27 -118 27 -129 -3 -129 -21 0 -24 5
-29 68 -9 95 -9 152 2 152 5 0 19 -41 30 -91z"/>
<path d="M640 800 c0 -42 60 -492 75 -566 4 -17 10 -20 35 -16 20 3 30 10 30
21 -1 9 -18 142 -38 296 l-38 280 -32 3 c-27 3 -32 0 -32 -18z"/>
<path d="M440 797 c-63 -22 -72 -77 -45 -279 31 -230 56 -318 90 -332 29 -11
85 -6 115 9 45 23 63 113 39 198 -9 33 -14 38 -37 35 -27 -3 -27 -3 -24 -74 3
-56 0 -74 -13 -87 -22 -23 -49 -8 -64 35 -11 31 -34 188 -47 325 -7 78 2 103
37 103 23 0 28 -8 43 -83 12 -59 14 -62 42 -62 29 0 29 0 27 57 -2 74 -33 145
-68 158 -33 13 -51 12 -95 -3z"/>
<path d="M2200 355 c-179 -23 -399 -52 -490 -64 -91 -13 -264 -35 -385 -51
-121 -16 -305 -41 -410 -55 -104 -14 -334 -43 -510 -65 -393 -49 -382 -47
-389 -67 -14 -34 13 -42 99 -28 44 7 184 25 310 39 127 15 286 36 355 47 144
22 357 51 545 75 72 9 177 22 235 30 121 15 462 60 565 74 39 5 142 19 230 30
88 11 166 22 173 25 13 5 17 41 5 48 -5 2 -154 -15 -333 -38z"/>
</g>
</svg>
