<?xml version="1.0" standalone="no"?>
<!DOCTYPE svg PUBLIC "-//W3C//DTD SVG 20010904//EN"
 "http://www.w3.org/TR/2001/REC-SVG-20010904/DTD/svg10.dtd">
<svg version="1.0" xmlns="http://www.w3.org/2000/svg"
 width="256.000000pt" height="199.000000pt" viewBox="0 0 256.000000 199.000000"
 preserveAspectRatio="xMidYMid meet">

<g transform="translate(0.000000,199.000000) scale(0.100000,-0.100000)"
fill="#000000" stroke="none">
<path d="M1182 1968 c-17 -17 -17 -279 0 -296 7 -7 43 -12 90 -12 66 0 79 3
88 19 5 11 10 78 10 150 0 119 -2 131 -19 141 -27 14 -154 13 -169 -2z"/>
<path d="M950 1924 c-19 -8 -43 -17 -53 -20 -33 -12 -31 -51 8 -162 42 -118
57 -142 90 -142 22 0 75 18 123 42 30 15 29 50 -4 146 -44 129 -59 152 -97
151 -17 0 -48 -7 -67 -15z"/>
<path d="M1493 1932 c-18 -11 -93 -216 -93 -253 0 -26 6 -33 47 -51 25 -11 62
-23 82 -25 43 -6 57 7 82 75 9 26 27 74 39 108 32 86 25 106 -48 133 -63 22
-89 26 -109 13z"/>
<path d="M719 1801 c-9 -3 -38 -24 -63 -45 -70 -60 -64 -81 59 -218 74 -84 94
-87 166 -26 70 59 68 76 -28 190 -78 91 -104 111 -134 99z"/>
<path d="M1754 1783 c-64 -68 -154 -187 -154 -203 0 -21 79 -96 115 -110 36
-14 48 -6 118 79 117 140 119 153 39 212 -70 53 -87 56 -118 22z"/>
<path d="M503 1573 c-19 -7 -73 -108 -73 -136 0 -29 14 -40 137 -110 109 -62
124 -62 169 8 25 40 34 65 32 88 -3 29 -12 37 -113 94 -104 60 -125 68 -152
56z"/>
<path d="M1955 1552 c-16 -10 -50 -30 -75 -44 -100 -56 -110 -64 -116 -81 -3
-10 9 -44 30 -81 52 -93 55 -93 232 8 38 22 72 45 76 50 16 23 6 64 -27 114
-40 59 -67 66 -120 34z"/>
<path d="M1161 1513 c20 -38 26 -127 11 -151 -7 -9 -18 -4 -47 23 -22 19 -47
35 -58 35 -10 0 -16 -3 -14 -7 14 -23 -17 -133 -53 -194 -76 -125 -40 -224 94
-265 61 -18 240 -30 319 -20 68 9 141 54 171 106 42 72 14 202 -57 268 l-24
23 -6 -39 c-7 -40 -48 -89 -66 -77 -6 3 -11 27 -11 53 0 69 -17 119 -53 158
-35 37 -181 124 -208 124 -15 0 -15 -3 2 -37z"/>
<path d="M378 1293 c-21 -5 -25 -18 -33 -109 -5 -53 -3 -73 7 -82 14 -11 197
-42 254 -42 42 0 50 12 65 93 17 91 8 99 -131 121 -58 10 -114 19 -125 21 -11
2 -28 1 -37 -2z"/>
<path d="M1990 1278 c-57 -11 -110 -24 -117 -30 -28 -23 -5 -171 29 -189 20
-11 146 6 250 32 47 12 55 38 40 122 -18 97 -22 98 -202 65z"/>
<path d="M2320 990 c-74 -10 -205 -27 -290 -39 -85 -12 -209 -28 -275 -36 -66
-8 -187 -24 -270 -35 -135 -18 -504 -67 -800 -105 -60 -8 -228 -30 -373 -49
-144 -20 -269 -36 -277 -36 -14 0 -21 -30 -10 -41 2 -3 66 3 142 12 76 10 196
25 268 34 72 8 137 18 146 20 8 3 73 12 145 20 71 8 197 24 279 35 364 50 769
103 870 115 61 8 122 16 135 18 14 3 123 18 243 33 211 28 217 29 217 51 0 13
-3 22 -7 22 -5 -1 -69 -9 -143 -19z"/>
<path d="M1945 835 c-31 -30 -31 -53 -4 -250 13 -99 28 -165 42 -195 l22 -45
53 1 c30 1 59 7 65 14 27 26 -3 362 -39 450 -18 43 -29 50 -77 50 -27 0 -45
-7 -62 -25z m82 -33 c16 -10 42 -148 59 -310 6 -67 -3 -92 -36 -92 -28 0 -42
53 -71 282 -13 108 3 149 48 120z"/>
<path d="M1805 833 c-66 -12 -61 14 -54 -250 4 -131 7 -246 8 -256 1 -14 8
-18 29 -15 27 3 27 4 27 73 0 64 2 70 22 73 22 3 30 -13 48 -100 4 -23 11 -28
35 -28 35 0 34 -1 17 70 -8 30 -21 89 -31 130 -9 41 -25 113 -36 159 -11 46
-20 91 -20 100 0 26 -23 48 -45 44z m24 -202 c16 -98 15 -111 -9 -111 -19 0
-20 7 -20 90 0 50 4 90 9 90 4 0 13 -31 20 -69z"/>
<path d="M1618 803 c-22 -6 -23 -40 -4 -166 8 -50 19 -132 26 -182 21 -167 18
-155 50 -155 20 0 30 5 30 15 0 8 -11 101 -25 207 -40 305 -36 292 -77 281z"/>
<path d="M1425 788 c-52 -28 -57 -83 -25 -298 29 -190 52 -231 127 -223 68 7
87 48 76 158 -6 53 -7 56 -32 53 -25 -3 -26 -5 -23 -61 4 -54 -7 -87 -29 -87
-25 0 -38 40 -59 198 -20 141 -22 173 -11 186 30 35 53 13 66 -61 8 -50 17
-58 45 -43 15 8 19 17 15 38 -19 88 -30 119 -47 135 -23 19 -73 22 -103 5z"/>
<path d="M1089 719 c-20 -20 -21 -28 -15 -125 8 -132 40 -308 61 -340 12 -19
24 -24 58 -24 23 0 53 7 66 17 23 16 24 18 17 127 -8 140 -37 306 -59 340 -15
22 -25 26 -62 26 -33 0 -51 -6 -66 -21z m102 -95 c16 -67 40 -295 34 -316 -11
-32 -57 -20 -67 17 -10 40 -31 238 -31 299 0 82 44 82 64 0z"/>
<path d="M893 695 c-8 -22 6 -488 15 -497 4 -4 18 -5 30 -1 21 5 23 10 20 72
-3 65 -3 66 24 69 25 3 27 0 40 -60 11 -46 19 -64 32 -66 32 -6 39 12 27 65
-56 238 -72 307 -84 363 l-13 65 -42 3 c-32 2 -44 -1 -49 -13z m82 -190 c16
-83 17 -97 5 -105 -30 -19 -40 9 -40 112 0 54 4 97 8 94 5 -3 17 -48 27 -101z"/>
<path d="M745 679 c-4 -6 -2 -45 4 -87 6 -42 19 -126 28 -187 9 -60 19 -135
22 -165 6 -53 7 -55 36 -55 32 0 32 -2 21 80 -60 465 -52 425 -82 425 -12 0
-26 -5 -29 -11z"/>
<path d="M560 664 c-25 -11 -28 -17 -32 -71 -3 -57 -1 -83 21 -228 30 -197 45
-222 125 -212 58 8 76 34 76 112 0 79 -6 95 -36 95 -23 0 -24 -3 -24 -69 0
-55 -3 -70 -17 -75 -31 -12 -45 20 -64 150 -28 196 -27 254 5 254 22 0 37 -26
44 -77 6 -43 10 -48 36 -51 l28 -4 -7 54 c-17 123 -63 160 -155 122z"/>
<path d="M2370 339 c-69 -10 -199 -28 -290 -39 -91 -12 -194 -26 -230 -31 -36
-4 -101 -13 -145 -19 -44 -6 -136 -17 -205 -26 -69 -8 -208 -26 -310 -40 -183
-25 -335 -45 -480 -64 -41 -5 -145 -19 -230 -30 -142 -18 -253 -33 -337 -46
-25 -4 -33 -10 -33 -26 0 -17 4 -19 33 -14 17 3 88 12 157 21 69 9 206 27 305
40 99 13 268 36 375 50 160 20 728 95 1025 135 588 78 545 71 545 91 0 23 -11
23 -180 -2z"/>
</g>
</svg>
